<?xml version="1.0" encoding="UTF-8"?>
<svg id="Layer_1" data-name="Layer 1" xmlns="http://www.w3.org/2000/svg" viewBox="0 0 595.28 90.44">
  <defs>
    <style>
      .cls-1 {
        fill: #231f20;
      }

      .cls-2 {
        fill: #ee262a;
      }
    </style>
  </defs>
  <path class="cls-2" d="M74.4,26.77h-20.38c-1.05-3.29-3.07-5.83-6.09-7.6-3.01-1.77-6.73-2.65-11.15-2.65-4.18,0-7.54.74-10.07,2.23-2.53,1.49-3.8,3.56-3.8,6.21,0,2.17.9,4.02,2.71,5.55,1.81,1.53,4.28,2.61,7.42,3.26l11.94,2.41c3.62.72,6.59,1.39,8.92,1.99,2.33.6,5.1,1.59,8.32,2.95,3.21,1.37,5.77,2.87,7.66,4.52,1.89,1.65,3.54,3.86,4.94,6.63,1.41,2.77,2.11,5.93,2.11,9.47,0,8.68-3.68,15.64-11.03,20.86-7.36,5.23-15.9,7.84-25.62,7.84-11.26,0-20.38-2.63-27.37-7.9-6.99-5.26-11.3-12.64-12.9-22.13h20.5c2.25,8.92,9,13.38,20.26,13.38,4.1,0,7.62-.76,10.55-2.29,2.93-1.53,4.4-3.94,4.4-7.24,0-2.65-1.39-4.78-4.16-6.39-2.77-1.61-6.81-2.97-12.12-4.1l-10.61-2.17C10.73,47.91,1.69,39.43,1.69,26.17c0-5.63,1.87-10.49,5.61-14.59,3.74-4.1,8.28-7.06,13.63-8.86C26.27.9,31.96,0,37.99,0s11.41.87,16.4,2.59c4.98,1.73,9.35,4.66,13.08,8.8,3.74,4.14,6.05,9.27,6.93,15.37Z"/>
  <path class="cls-2" d="M105.15,88.87V19.54h-27.98V1.45h76.81v18.09h-28.1v69.34h-20.74Z"/>
  <path class="cls-2" d="M162.55,88.87V1.45h67.05v18.09h-46.43v15.31h43.89v18.21h-43.89v17.61h46.43v18.21h-67.05Z"/>
  <path class="cls-2" d="M301.59,88.87h-19.41l-19.66-69.94v69.94h-20.02V1.45h32.56l16.76,62.71L308.94,1.45h32.2v87.43h-20.02V18.81l-19.53,70.06Z"/>
  <path class="cls-1" d="M348.98,88.87L382.14,1.45h9.16l33.28,87.43h-8.8l-8.32-21.95h-41.6l-8.2,21.95h-8.68ZM386.48,11.46l-17.85,47.99h35.93l-18.09-47.99Z"/>
  <path class="cls-1" d="M441.11,1.45v87.43h-7.48V1.45h7.48Z"/>
  <path class="cls-1" d="M459.2,1.45h7.48v11.94h-7.48V1.45ZM459.2,24h7.48v64.88h-7.48V24Z"/>
  <path class="cls-1" d="M484.16,24l20.14,54.51,19.54-54.51h8.08l-24.12,64.88h-7.24l-24.84-64.88h8.44Z"/>
  <path class="cls-1" d="M566.52,90.44c-9.41,0-16.86-3.07-22.37-9.22-5.51-6.15-8.26-14.33-8.26-24.54s2.85-18.39,8.56-24.54c5.71-6.15,12.98-9.23,21.83-9.23s16.2,3.4,21.59,10.19c5.38,6.79,7.84,15.3,7.36,25.5h-51.61c.16,7.72,2.41,13.81,6.75,18.27,4.34,4.46,9.89,6.69,16.64,6.69,5.07,0,9.31-1.22,12.72-3.68,3.42-2.45,5.77-5.93,7.05-10.43h7.84c-1.61,6.75-4.86,11.94-9.77,15.56-4.9,3.62-11.02,5.43-18.33,5.43ZM581.23,36.36c-3.86-4.46-8.88-6.69-15.07-6.69s-11.26,1.89-15.19,5.67c-3.94,3.78-6.31,9.25-7.12,16.4h43.17c0-5.79-1.93-10.91-5.79-15.37Z"/>
</svg>