<?xml version="1.0" encoding="UTF-8"?>
<svg id="Layer_1" data-name="Layer 1" xmlns="http://www.w3.org/2000/svg" viewBox="0 0 584.96 88.87">
  <defs>
    <style>
      .cls-1 {
        fill: #fff;
      }
    </style>
  </defs>
  <path class="cls-1" d="M73.11,26.31h-20.03c-1.03-3.24-3.02-5.73-5.98-7.47-2.96-1.74-6.62-2.61-10.96-2.61-4.11,0-7.41.73-9.89,2.19-2.49,1.46-3.73,3.5-3.73,6.1,0,2.13.89,3.95,2.67,5.45,1.78,1.5,4.21,2.57,7.29,3.2l11.73,2.37c3.55.71,6.48,1.36,8.77,1.96,2.29.59,5.02,1.56,8.18,2.9,3.16,1.34,5.67,2.82,7.53,4.44,1.86,1.62,3.48,3.79,4.86,6.52,1.38,2.73,2.07,5.83,2.07,9.3,0,8.53-3.61,15.37-10.84,20.5-7.23,5.14-15.62,7.7-25.18,7.7-11.06,0-20.03-2.59-26.9-7.76-6.87-5.17-11.1-12.42-12.68-21.74h20.14c2.21,8.77,8.85,13.15,19.91,13.15,4.03,0,7.48-.75,10.37-2.25,2.88-1.5,4.33-3.87,4.33-7.11,0-2.61-1.36-4.7-4.09-6.28-2.73-1.58-6.7-2.92-11.91-4.03l-10.43-2.13C10.55,47.08,1.66,38.75,1.66,25.71c0-5.53,1.84-10.31,5.51-14.34,3.67-4.03,8.14-6.93,13.39-8.71C25.81.89,31.4,0,37.33,0s11.22.85,16.12,2.55c4.9,1.7,9.18,4.58,12.86,8.65,3.67,4.07,5.94,9.11,6.81,15.11Z"/>
  <path class="cls-1" d="M103.33,87.33V19.2h-27.49V1.42h75.48v17.77h-27.61v68.14h-20.38Z"/>
  <path class="cls-1" d="M159.73,87.33V1.42h65.89v17.77h-45.62v15.05h43.13v17.89h-43.13v17.3h45.62v17.89h-65.89Z"/>
  <path class="cls-1" d="M296.36,87.33h-19.08l-19.32-68.73v68.73h-19.67V1.42h32l16.47,61.62L303.59,1.42h31.64v85.91h-19.67V18.49l-19.2,68.85Z"/>
  <path class="cls-1" d="M342.93,87.33L375.52,1.42h9.01l32.71,85.91h-8.65l-8.18-21.57h-40.88l-8.06,21.57h-8.53ZM379.78,11.26l-17.54,47.16h35.31l-17.77-47.16Z"/>
  <path class="cls-1" d="M433.46,1.42v85.91h-7.35V1.42h7.35Z"/>
  <path class="cls-1" d="M451.24,1.42h7.35v11.73h-7.35V1.42ZM451.24,23.58h7.35v63.75h-7.35V23.58Z"/>
  <path class="cls-1" d="M475.77,23.58l19.79,53.56,19.2-53.56h7.94l-23.7,63.75h-7.11l-24.41-63.75h8.29Z"/>
  <path class="cls-1" d="M556.7,88.87c-9.24,0-16.57-3.02-21.98-9.06-5.41-6.04-8.12-14.08-8.12-24.12s2.8-18.07,8.41-24.11c5.61-6.04,12.76-9.07,21.45-9.07s15.92,3.34,21.21,10.01c5.29,6.68,7.7,15.03,7.23,25.06h-50.72c.16,7.58,2.37,13.57,6.64,17.95,4.27,4.38,9.72,6.58,16.35,6.58,4.98,0,9.14-1.2,12.5-3.61,3.36-2.41,5.67-5.82,6.93-10.25h7.7c-1.58,6.64-4.78,11.73-9.6,15.29-4.82,3.55-10.82,5.33-18.01,5.33ZM571.16,35.73c-3.79-4.38-8.73-6.58-14.81-6.58s-11.06,1.86-14.93,5.57c-3.87,3.71-6.2,9.09-6.99,16.12h42.42c0-5.69-1.9-10.72-5.69-15.11Z"/>
</svg>